<?xml version="1.0" encoding="utf-8"?>
<!-- Generator: Adobe Illustrator 18.1.1, SVG Export Plug-In . SVG Version: 6.00 Build 0)  -->
<!DOCTYPE svg PUBLIC "-//W3C//DTD SVG 1.1//EN" "http://www.w3.org/Graphics/SVG/1.1/DTD/svg11.dtd">
<svg version="1.1" id="Layer_1" xmlns="http://www.w3.org/2000/svg" xmlns:xlink="http://www.w3.org/1999/xlink" x="0px" y="0px"
	 viewBox="-93 95 100 100" enable-background="new -93 95 100 100" xml:space="preserve">
<g>
	<path stroke="#000000" stroke-width="1.5033" stroke-miterlimit="10" d="M-11.2,137.8c1,4,1.6,8.2,1.6,12.6c0,0.5,0,1,0,1.5l5.2,2
		l4.3-3.5l3.3,3.9l-6.4,5.3l-6.7-2.7c-0.8,5.9-2.6,11.4-5.1,16.2l0.9-1.2l5,2.9l4.8-2.9l2.7,4.3l-7.1,4.3l-7.9-4.6
		c-6.1,9.5-15.7,15.7-26.3,15.7c-10.7,0-20.2-6.1-26.3-15.6l-7.7,4.5l-7.1-4.3l2.7-4.3l4.8,2.9l5-2.9l0.4,0.5
		c-2.4-4.6-4-9.8-4.7-15.3l-6.5,2.6l-6.4-5.3l3.3-3.9l4.3,3.5l4.9-1.9c0-0.5,0-1.1,0-1.6c0-4.4,0.6-8.6,1.6-12.6l-8.4-0.3l-3.6-7.4
		l4.6-2.2l2.4,5l5.8,0.3l0.1,1.7c3.5-10.3,10.2-18.4,18.7-22.5c0.2-3.2,2.8-5.7,6-5.7h14c3.3,0,6,2.7,6,6c0,0.1,0,0.3,0,0.4
		c8,4.4,14.3,12.4,17.5,22.4l0.1-2.2l5.8-0.3l2.4-5l4.6,2.2l-3.6,7.4L-11.2,137.8z"/>
	<polygon stroke="#000000" stroke-width="1.5033" stroke-miterlimit="10" points="-26.1,101.3 -26.8,103.1 -27.8,103.5 -30,104.1 
		-31.7,105.2 -34.3,106.6 -34.3,105.2 -31.4,103.2 -29.4,102.6 -27.5,101.3 -26.5,99.2 -24.5,98.5 -25,100.5 	"/>
	<polygon stroke="#000000" stroke-width="1.5033" stroke-miterlimit="10" points="-54.9,104.1 -57,103.5 -58,103.1 -58.7,101.3 
		-59.8,100.5 -60.4,98.5 -58.3,99.2 -57.3,101.3 -55.5,102.6 -53.4,103.2 -50.5,105.2 -50.5,106.6 -53.1,105.2 	"/>
</g>
</svg>
