<svg xmlns="http://www.w3.org/2000/svg" viewBox="-93 95 100 100" enable-background="new -93 95 100 100"><g fill="#512200" stroke="#512200" stroke-width="1.503" stroke-miterlimit="10"><path d="M-11.2 137.8c1 4 1.6 8.2 1.6 12.6v1.5l5.2 2 4.3-3.5 3.3 3.9-6.4 5.3-6.7-2.7c-.8 5.9-2.6 11.4-5.1 16.2l.9-1.2 5 2.9 4.8-2.9 2.7 4.3-7.1 4.3-7.9-4.6c-6.1 9.5-15.7 15.7-26.3 15.7-10.7 0-20.2-6.1-26.3-15.6l-7.7 4.5-7.1-4.3 2.7-4.3 4.8 2.9 5-2.9.4.5c-2.4-4.6-4-9.8-4.7-15.3l-6.5 2.6-6.4-5.3 3.3-3.9 4.3 3.5 4.9-1.9v-1.6c0-4.4.6-8.6 1.6-12.6l-8.4-.3-3.6-7.4 4.6-2.2 2.4 5 5.8.3.1 1.7c3.5-10.3 10.2-18.4 18.7-22.5.2-3.2 2.8-5.7 6-5.7h14c3.3 0 6 2.7 6 6v.4c8 4.4 14.3 12.4 17.5 22.4l.1-2.2 5.8-.3 2.4-5 4.6 2.2-3.6 7.4-9 .1zM-26.1 101.3l-.7 1.8-1 .4-2.2.6-1.7 1.1-2.6 1.4v-1.4l2.9-2 2-.6 1.9-1.3 1-2.1 2-.7-.5 2zM-54.9 104.1l-2.1-.6-1-.4-.7-1.8-1.1-.8-.6-2 2.1.7 1 2.1 1.8 1.3 2.1.6 2.9 2v1.4l-2.6-1.4z"/></g></svg>